<?xml version="1.0" standalone="no"?>
<!DOCTYPE svg PUBLIC "-//W3C//DTD SVG 20010904//EN"
 "http://www.w3.org/TR/2001/REC-SVG-20010904/DTD/svg10.dtd">
<svg version="1.0" xmlns="http://www.w3.org/2000/svg"
 width="900.000000pt" height="270.000000pt" viewBox="0 0 900.000000 270.000000"
 preserveAspectRatio="xMidYMid meet">
<metadata>
Created by potrace 1.10, written by Peter Selinger 2001-2011
</metadata>
<g transform="translate(0.000000,270.000000) scale(0.100000,-0.100000)"
fill="#41654b" stroke="none">
<path d="M4273 2261 c-108 -66 -111 -221 -6 -289 71 -47 156 -37 216 24 83 86
58 224 -50 270 -47 20 -122 18 -160 -5z"/>
<path d="M2587 2233 c-4 -3 -7 -320 -7 -703 0 -584 2 -699 14 -709 9 -8 52
-11 127 -9 l114 3 3 713 2 712 -123 0 c-68 0 -127 -3 -130 -7z"/>
<path d="M3777 2234 c-4 -4 -7 -105 -7 -224 0 -119 -3 -220 -7 -223 -3 -4 -22
5 -41 19 -78 60 -235 81 -350 48 -230 -67 -382 -275 -382 -522 0 -184 87 -353
229 -445 97 -64 142 -78 256 -84 88 -5 108 -2 170 19 66 24 176 86 190 108 15
24 43 6 87 -55 50 -68 78 -82 98 -46 7 14 9 247 8 713 l-3 693 -121 3 c-66 1
-123 -1 -127 -4z m-168 -648 c85 -43 148 -136 158 -231 10 -94 -41 -200 -124
-257 -40 -27 -59 -33 -116 -36 -84 -5 -144 15 -194 67 -63 64 -78 105 -78 206
0 79 4 97 27 142 63 120 209 168 327 109z"/>
<path d="M5225 2188 c-239 -58 -398 -175 -499 -368 -98 -186 -106 -433 -19
-618 85 -183 232 -315 423 -382 98 -34 278 -40 388 -12 45 12 99 29 119 38 57
26 151 87 157 102 6 13 -107 209 -128 224 -5 4 -27 -7 -47 -23 -21 -16 -64
-42 -96 -57 -53 -24 -69 -27 -173 -27 -108 0 -119 2 -182 32 -201 95 -301 312
-238 516 66 215 266 341 488 308 76 -12 161 -49 209 -93 12 -11 28 -18 36 -15
21 8 137 206 130 223 -6 16 -100 75 -166 104 -118 52 -297 74 -402 48z"/>
<path d="M523 2170 c-48 -11 -138 -59 -182 -97 -47 -40 -98 -119 -117 -182
-17 -57 -18 -183 -1 -236 34 -107 119 -205 224 -257 l64 -31 207 -5 c223 -5
245 -9 280 -59 45 -64 34 -134 -27 -186 l-33 -27 -318 0 c-305 0 -320 -1 -330
-19 -13 -25 -13 -217 0 -242 10 -18 24 -19 309 -19 164 0 322 5 352 10 269 51
417 331 305 576 -36 78 -136 175 -212 205 -53 21 -80 24 -269 29 -203 5 -211
6 -242 29 -19 14 -40 44 -49 68 -16 42 -16 46 2 90 37 89 29 87 412 93 l337 5
3 124 c2 93 -1 126 -10 133 -16 10 -662 9 -705 -2z"/>
<path d="M1790 1858 c-80 -22 -183 -81 -239 -137 -104 -104 -151 -225 -151
-386 0 -113 15 -178 62 -266 33 -62 137 -177 181 -199 15 -7 27 -22 27 -32 0
-30 -46 -94 -137 -191 -154 -164 -221 -293 -230 -444 -6 -80 -5 -82 18 -88 13
-3 238 -4 499 -3 l475 3 -1 57 c-1 67 -25 113 -133 262 -89 123 -110 183 -93
263 14 66 37 99 48 67 47 -136 125 -274 155 -274 26 0 24 27 -6 66 -41 53 -98
175 -103 220 -4 39 -3 42 24 47 16 3 58 3 94 0 58 -4 68 -2 89 17 19 19 22 29
17 63 -5 27 -2 47 8 62 15 23 23 86 15 114 -2 8 10 24 28 35 38 25 39 34 14
78 -15 26 -20 60 -24 166 -5 131 -4 133 19 150 14 9 37 27 52 39 l27 23 -47 0
c-69 0 -92 13 -133 74 -65 99 -165 173 -276 206 -72 22 -216 26 -279 8z m128
-473 c29 -9 52 -21 52 -28 0 -6 -7 -31 -17 -55 -16 -43 -17 -43 -52 -37 -63
12 -73 21 -65 63 6 34 21 72 28 72 1 0 26 -7 54 -15z"/>
<path d="M6224 1851 c-168 -48 -314 -203 -354 -376 -18 -73 -16 -229 3 -302
48 -185 193 -326 374 -363 31 -7 97 -10 147 -8 104 5 182 35 280 107 l55 41
40 -52 c62 -81 71 -89 94 -86 l22 3 0 505 0 505 -25 3 c-20 2 -36 -9 -73 -53
-27 -30 -53 -55 -58 -55 -6 0 -29 15 -52 34 -49 39 -131 82 -196 102 -62 19
-182 16 -257 -5z m254 -267 c61 -30 96 -69 130 -143 21 -46 24 -64 20 -126 -6
-84 -33 -141 -94 -195 -52 -45 -93 -60 -169 -60 -75 0 -117 15 -167 59 -58 51
-81 111 -81 211 0 130 41 208 135 254 74 35 155 35 226 0z"/>
<path d="M8205 1851 c-175 -50 -306 -182 -356 -361 -7 -25 -13 -96 -13 -160 1
-93 5 -128 23 -180 42 -120 101 -199 199 -263 109 -71 148 -82 292 -82 120 0
128 1 204 34 83 36 206 137 206 170 0 18 -159 181 -176 181 -6 0 -17 -11 -24
-25 -29 -55 -119 -104 -195 -107 -89 -3 -93 -10 125 252 283 342 281 339 271
358 -12 21 -74 79 -125 117 -22 16 -76 41 -120 57 -97 33 -215 37 -311 9z
m208 -248 c3 -5 -7 -24 -21 -44 -66 -89 -152 -205 -159 -214 -5 -5 -28 -36
-52 -67 -24 -32 -49 -58 -57 -58 -61 0 -38 226 32 309 40 48 118 81 190 81 35
0 65 -3 67 -7z"/>
<path d="M4248 1829 c-17 -9 -18 -44 -18 -503 0 -410 2 -496 14 -505 9 -8 52
-11 127 -9 l114 3 0 510 0 510 -110 2 c-63 2 -118 -2 -127 -8z"/>
<path d="M7100 1821 c-15 -30 -14 -983 2 -999 16 -16 220 -16 236 0 9 9 12 91
12 305 0 319 2 333 56 387 50 49 87 60 234 66 l135 5 3 100 c4 156 14 145
-136 145 -71 0 -155 -5 -187 -11 -56 -10 -142 -46 -175 -74 -34 -28 -47 -24
-80 23 -53 75 -80 89 -100 53z"/>
</g>
</svg>
