<svg width="17" height="40" viewBox="0 0 17 40" fill="none" xmlns="http://www.w3.org/2000/svg">
<g clip-path="url(#clip0_677_1137)">
<path d="M5.14097 13.3671C5.05836 13.8644 4.90967 14.3618 4.90967 14.8592C4.90967 16.094 4.48012 17.1831 3.91839 18.2207C3.4558 19.0783 3.12537 19.9187 3.21624 20.9306C3.2658 21.5051 3.18319 22.0968 3.15841 22.68C3.15015 22.7657 3.11711 22.8601 3.00146 22.963C2.92711 22.7914 2.85277 22.6199 2.77016 22.4227C2.70408 22.7657 2.64625 23.1002 2.58843 23.426C2.52234 23.426 2.46452 23.426 2.39843 23.426C2.35713 23.0144 2.30756 22.6028 2.24974 22.0711C2.13409 22.6199 2.04322 23.0573 1.95235 23.4946C1.89453 23.4861 1.83671 23.4775 1.78714 23.4689C1.78714 23.083 1.78714 22.6971 1.78714 22.1912C1.55584 22.5428 1.39063 22.7829 1.22542 23.023C1.16759 22.9973 1.10151 22.9715 1.04368 22.9458C1.18411 22.3713 1.3328 21.7967 1.47324 21.2221C1.27498 21.4108 1.08498 21.5995 0.886729 21.7967C0.837165 21.771 0.787601 21.7452 0.738037 21.7109C0.77934 21.5051 0.787601 21.2822 0.878468 21.1107C1.10151 20.699 1.3328 20.2874 1.62193 19.9273C2.10105 19.3355 2.34887 18.6667 2.38191 17.8949C2.43147 16.7886 2.62973 15.7424 3.04276 14.6962C3.35667 13.9159 3.42275 13.0069 3.50536 12.1493C3.60449 11.086 3.53014 10.0055 3.64579 8.94213C3.74492 7.98168 4.35621 7.45001 5.27314 7.26135C5.65313 7.18417 6.02486 7.09841 6.38833 6.96978C7.24744 6.66107 7.26396 5.76065 7.03266 5.07461C6.90875 4.70587 6.65267 4.38858 6.50398 4.02841C6.4379 3.86548 6.51224 3.65109 6.53702 3.46243C6.5618 3.25662 6.60311 3.05939 6.61137 2.86215C6.65267 2.03033 6.9831 1.40433 7.73482 1.06131C8.48654 0.726869 9.30435 0.881227 9.87433 1.46436C10.2956 1.89313 10.4113 2.43338 10.4113 3.03366C10.4113 3.19659 10.5517 3.35953 10.5434 3.51388C10.5352 3.74542 10.4939 3.99411 10.403 4.20849C10.1552 4.75732 9.83303 5.2547 9.88259 5.915C9.92389 6.4381 10.1552 6.78112 10.6013 6.96121C10.9069 7.08126 11.2291 7.20132 11.5512 7.23562C12.9638 7.3814 13.4512 8.48763 13.4842 9.59386C13.5173 10.6829 13.4512 11.772 13.5751 12.8439C13.6742 13.6929 13.9964 14.5162 14.2194 15.348C14.3351 15.7682 14.459 16.1969 14.5416 16.6257C14.6077 17.003 14.6242 17.3889 14.6407 17.7748C14.6738 18.5981 14.9133 19.327 15.442 19.9701C15.7146 20.3046 15.9294 20.699 16.1359 21.0764C16.235 21.2564 16.2598 21.488 16.3176 21.6938C16.2681 21.7281 16.2185 21.7624 16.169 21.7967C15.9707 21.6166 15.7724 21.428 15.5659 21.2479C15.7064 21.8053 15.8468 22.3798 15.9872 22.9544C15.9294 22.9801 15.8633 23.0058 15.8055 23.0316C15.6485 22.7914 15.4916 22.5513 15.2685 22.2083C15.2685 22.6885 15.2685 23.0744 15.2685 23.4689C15.2025 23.4775 15.1446 23.4861 15.0785 23.4946C14.9877 23.0573 14.8968 22.6285 14.8059 22.1912C14.7894 22.1912 14.7729 22.1826 14.7646 22.1826C14.7233 22.5942 14.682 23.0144 14.6407 23.426C14.5746 23.426 14.5086 23.4346 14.4425 23.4346C14.3764 23.1087 14.3186 22.7743 14.2525 22.4313C14.1781 22.6114 14.1038 22.7829 13.9799 23.0744C13.9221 22.8772 13.8725 22.7914 13.8725 22.7057C13.8477 21.8481 13.8973 20.982 13.7899 20.1416C13.7155 19.5671 13.476 19.0011 13.2282 18.478C12.7903 17.569 12.336 16.6686 12.1873 15.6567C12.1047 15.065 12.0634 14.4647 11.9891 13.873C11.9643 13.7015 11.8817 13.53 11.8321 13.3671C11.7991 13.3671 11.766 13.3756 11.733 13.3756C11.6917 13.9759 11.6504 14.5762 11.6091 15.1765C11.5265 16.4371 11.6091 17.6633 12.0551 18.8811C12.5673 20.296 12.4434 21.7795 12.2121 23.2459C12.0221 24.498 11.8073 25.75 11.6421 27.0106C11.5347 27.8424 11.4934 28.6828 11.4273 29.5232C11.4191 29.6175 11.4439 29.7204 11.4769 29.8147C11.9643 31.101 11.7578 32.3616 11.386 33.6308C11.1217 34.5398 10.8243 35.4574 10.6674 36.3921C10.5847 36.898 10.7665 37.4469 10.8408 37.9785C10.8574 38.09 10.9234 38.1843 10.9565 38.2958C11.163 39.059 11.0639 39.0076 10.4278 39.1791C10.0148 39.2906 9.56869 39.2906 9.13913 39.3077C8.92435 39.3163 8.75914 39.1962 8.80044 38.939C8.85001 38.6731 8.94088 38.4159 8.99044 38.15C9.27956 36.8037 9.65129 35.4659 9.57695 34.0681C9.53564 33.2277 9.39521 32.3702 9.51912 31.5555C9.75868 30.0291 9.25478 28.6142 9.13087 27.1392C9.02348 25.8615 8.85827 24.5837 8.7261 23.306C8.69306 22.9458 8.70132 22.9458 8.33785 22.9458C8.2635 23.7776 8.21394 24.618 8.09829 25.4413C7.92481 26.7876 7.68526 28.1168 7.52004 29.4631C7.4457 30.0377 7.487 30.6208 7.49526 31.2039C7.49526 31.7871 7.57787 32.3788 7.5283 32.9533C7.40439 34.1882 7.39613 35.3973 7.71004 36.6065C7.87525 37.2325 7.99916 37.8842 8.15611 38.5102C8.32133 39.1705 8.25524 39.282 7.59439 39.2305C7.14831 39.1962 6.7105 39.1191 6.27268 39.0676C5.99182 39.0333 5.94226 38.8532 6.00008 38.6045C6.04138 38.4244 6.07443 38.2358 6.14877 38.0729C6.55354 37.2067 6.44616 36.332 6.19834 35.4488C5.89269 34.3511 5.554 33.262 5.33923 32.1472C5.23184 31.5813 5.30618 30.9467 5.41357 30.3721C5.50444 29.8833 5.62009 29.4288 5.54574 28.9057C5.33097 27.4651 5.15749 26.0244 5.00054 24.5837C4.8188 22.9544 4.42229 21.3422 4.78576 19.6871C4.85185 19.3956 4.88489 19.0869 4.99228 18.8124C5.52922 17.5604 5.49618 16.257 5.41357 14.9364C5.38053 14.4133 5.33923 13.8902 5.30618 13.3585C5.25662 13.367 5.1988 13.3671 5.14097 13.3671Z" fill="#4B89A7"/>
</g>
<defs>
<clipPath id="clip0_677_1137">
<rect width="15.5796" height="38.4209" fill="white" transform="translate(0.738037 0.887207)"/>
</clipPath>
</defs>
</svg>
