<svg width="16" height="40" viewBox="0 0 16 40" fill="none" xmlns="http://www.w3.org/2000/svg">
<g clip-path="url(#clip0_677_1141)">
<path d="M4.82676 13.3671C4.74415 13.8644 4.59546 14.3618 4.59546 14.8592C4.59546 16.094 4.16591 17.1831 3.60418 18.2207C3.14159 19.0783 2.81116 19.9187 2.90203 20.9306C2.95159 21.5051 2.86898 22.0968 2.8442 22.68C2.83594 22.7657 2.8029 22.8601 2.68725 22.963C2.6129 22.7914 2.53856 22.6199 2.45595 22.4227C2.38987 22.7657 2.33204 23.1002 2.27422 23.426C2.20813 23.426 2.15031 23.426 2.08422 23.426C2.04292 23.0144 1.99335 22.6028 1.93553 22.0711C1.81988 22.6199 1.72901 23.0573 1.63815 23.4946C1.58032 23.4861 1.5225 23.4775 1.47293 23.4689C1.47293 23.083 1.47293 22.6971 1.47293 22.1912C1.24163 22.5428 1.07642 22.7829 0.911207 23.023C0.853383 22.9973 0.787297 22.9715 0.729473 22.9458C0.869904 22.3713 1.0186 21.7967 1.15903 21.2221C0.960771 21.4108 0.770776 21.5995 0.57252 21.7967C0.522956 21.771 0.473392 21.7452 0.423828 21.7109C0.465131 21.5051 0.473392 21.2822 0.564259 21.1107C0.787297 20.699 1.0186 20.2874 1.30772 19.9273C1.78684 19.3355 2.03466 18.6667 2.0677 17.8949C2.11726 16.7886 2.31552 15.7424 2.72855 14.6962C3.04246 13.9159 3.10854 13.0069 3.19115 12.1493C3.29028 11.086 3.21593 10.0055 3.33158 8.94213C3.43071 7.98168 4.042 7.45001 4.95893 7.26135C5.33892 7.18417 5.71065 7.09841 6.07412 6.96978C6.93323 6.66107 6.94975 5.76065 6.71845 5.07461C6.59454 4.70587 6.33846 4.38858 6.18977 4.02841C6.12369 3.86548 6.19803 3.65109 6.22281 3.46243C6.2476 3.25662 6.2889 3.05939 6.29716 2.86215C6.33846 2.03033 6.66889 1.40433 7.42061 1.06131C8.17233 0.726869 8.99014 0.881227 9.56012 1.46436C9.98142 1.89313 10.0971 2.43338 10.0971 3.03366C10.0971 3.19659 10.2375 3.35953 10.2292 3.51388C10.221 3.74542 10.1797 3.99411 10.0888 4.20849C9.84098 4.75732 9.51882 5.2547 9.56838 5.915C9.60969 6.4381 9.84098 6.78112 10.2871 6.96121C10.5927 7.08126 10.9149 7.20132 11.237 7.23562C12.6496 7.3814 13.137 8.48763 13.17 9.59386C13.2031 10.6829 13.137 11.772 13.2609 12.8439C13.36 13.6929 13.6822 14.5162 13.9052 15.348C14.0209 15.7682 14.1448 16.1969 14.2274 16.6257C14.2935 17.003 14.31 17.3889 14.3265 17.7748C14.3596 18.5981 14.5991 19.327 15.1278 19.9701C15.4004 20.3046 15.6152 20.699 15.8217 21.0764C15.9208 21.2564 15.9456 21.488 16.0034 21.6938C15.9539 21.7281 15.9043 21.7624 15.8547 21.7967C15.6565 21.6166 15.4582 21.428 15.2517 21.2479C15.3922 21.8053 15.5326 22.3798 15.673 22.9544C15.6152 22.9801 15.5491 23.0058 15.4913 23.0316C15.3343 22.7914 15.1774 22.5513 14.9543 22.2083C14.9543 22.6885 14.9543 23.0744 14.9543 23.4689C14.8882 23.4775 14.8304 23.4861 14.7643 23.4946C14.6735 23.0573 14.5826 22.6285 14.4917 22.1912C14.4752 22.1912 14.4587 22.1826 14.4504 22.1826C14.4091 22.5942 14.3678 23.0144 14.3265 23.426C14.2604 23.426 14.1944 23.4346 14.1283 23.4346C14.0622 23.1087 14.0044 22.7743 13.9383 22.4313C13.8639 22.6114 13.7896 22.7829 13.6657 23.0744C13.6078 22.8772 13.5583 22.7914 13.5583 22.7057C13.5335 21.8481 13.5831 20.982 13.4757 20.1416C13.4013 19.5671 13.1618 19.0011 12.914 18.478C12.4761 17.569 12.0218 16.6686 11.8731 15.6567C11.7905 15.065 11.7492 14.4647 11.6749 13.873C11.6501 13.7015 11.5675 13.53 11.5179 13.3671C11.4849 13.3671 11.4518 13.3756 11.4188 13.3756C11.3775 13.9759 11.3362 14.5762 11.2949 15.1765C11.2123 16.4371 11.2949 17.6633 11.7409 18.8811C12.2531 20.296 12.1292 21.7795 11.8979 23.2459C11.7079 24.498 11.4931 25.75 11.3279 27.0106C11.2205 27.8424 11.1792 28.6828 11.1131 29.5232C11.1049 29.6175 11.1296 29.7204 11.1627 29.8147C11.6501 31.101 11.4436 32.3616 11.0718 33.6308C10.8075 34.5398 10.5101 35.4574 10.3531 36.3921C10.2705 36.898 10.4523 37.4469 10.5266 37.9785C10.5431 38.09 10.6092 38.1843 10.6423 38.2958C10.8488 39.059 10.7497 39.0076 10.1136 39.1791C9.70055 39.2906 9.25448 39.2906 8.82492 39.3077C8.61015 39.3163 8.44493 39.1962 8.48624 38.939C8.5358 38.6731 8.62667 38.4159 8.67623 38.15C8.96535 36.8037 9.33708 35.4659 9.26274 34.0681C9.22143 33.2277 9.081 32.3702 9.20491 31.5555C9.44447 30.0291 8.94057 28.6142 8.81666 27.1392C8.70927 25.8615 8.54406 24.5837 8.41189 23.306C8.37885 22.9458 8.38711 22.9458 8.02364 22.9458C7.94929 23.7776 7.89973 24.618 7.78408 25.4413C7.61061 26.7876 7.37105 28.1168 7.20583 29.4631C7.13149 30.0377 7.17279 30.6208 7.18105 31.2039C7.18105 31.7871 7.26366 32.3788 7.21409 32.9533C7.09018 34.1882 7.08192 35.3973 7.39583 36.6065C7.56104 37.2325 7.68495 37.8842 7.8419 38.5102C8.00712 39.1705 7.94103 39.282 7.28018 39.2305C6.8341 39.1962 6.39629 39.1191 5.95847 39.0676C5.67761 39.0333 5.62805 38.8532 5.68587 38.6045C5.72717 38.4244 5.76022 38.2358 5.83456 38.0729C6.23934 37.2067 6.13195 36.332 5.88413 35.4488C5.57848 34.3511 5.2398 33.262 5.02502 32.1472C4.91763 31.5813 4.99197 30.9467 5.09936 30.3721C5.19023 29.8833 5.30588 29.4288 5.23153 28.9057C5.01676 27.4651 4.84328 26.0244 4.68633 24.5837C4.5046 22.9544 4.10808 21.3422 4.47155 19.6871C4.53764 19.3956 4.57068 19.0869 4.67807 18.8124C5.21501 17.5604 5.18197 16.257 5.09936 14.9364C5.06632 14.4133 5.02502 13.8902 4.99197 13.3585C4.94241 13.367 4.88459 13.3671 4.82676 13.3671Z" fill="#4A4A4A"/>
</g>
<defs>
<clipPath id="clip0_677_1141">
<rect width="15.5796" height="38.4209" fill="white" transform="translate(0.423828 0.887207)"/>
</clipPath>
</defs>
</svg>
