<svg width="16" height="40" viewBox="0 0 16 40" fill="none" xmlns="http://www.w3.org/2000/svg">
<g clip-path="url(#clip0_677_1100)">
<path d="M4.77037 13.1407C4.68776 13.6381 4.53907 14.1355 4.53907 14.6329C4.53907 15.8677 4.10951 16.9568 3.54779 17.9944C3.08519 18.852 2.75476 19.6924 2.84563 20.7043C2.89519 21.2788 2.81259 21.8705 2.78781 22.4536C2.77955 22.5394 2.7465 22.6337 2.63085 22.7366C2.55651 22.5651 2.48216 22.3936 2.39955 22.1964C2.33347 22.5394 2.27564 22.8738 2.21782 23.1997C2.15173 23.1997 2.09391 23.1997 2.02782 23.1997C1.98652 22.7881 1.93696 22.3765 1.87913 21.8448C1.76348 22.3936 1.67262 22.831 1.58175 23.2683C1.52392 23.2597 1.4661 23.2512 1.41654 23.2426C1.41654 22.8567 1.41654 22.4708 1.41654 21.9648C1.18524 22.3164 1.02002 22.5566 0.854811 22.7967C0.796986 22.7709 0.730901 22.7452 0.673076 22.7195C0.813507 22.1449 0.962199 21.5704 1.10263 20.9958C0.904375 21.1845 0.71438 21.3731 0.516124 21.5704C0.46656 21.5447 0.416996 21.5189 0.367432 21.4846C0.408735 21.2788 0.416996 21.0559 0.507863 20.8843C0.730901 20.4727 0.962199 20.0611 1.25132 19.7009C1.73044 19.1092 1.97826 18.4403 2.0113 17.6686C2.06087 16.5623 2.25912 15.5161 2.67216 14.4699C2.98606 13.6896 3.05215 12.7806 3.13475 11.923C3.23388 10.8597 3.15954 9.77916 3.27519 8.71581C3.37431 7.75536 3.9856 7.22369 4.90254 7.03503C5.28253 6.95785 5.65426 6.87209 6.01773 6.74346C6.87683 6.43475 6.89336 5.53433 6.66206 4.84829C6.53815 4.47955 6.28207 4.16226 6.13338 3.80209C6.06729 3.63916 6.14164 3.42477 6.16642 3.23611C6.1912 3.0303 6.2325 2.83307 6.24076 2.63583C6.28207 1.80402 6.61249 1.17801 7.36421 0.834993C8.11593 0.500551 8.93374 0.654909 9.50373 1.23804C9.92502 1.66681 10.0407 2.20706 10.0407 2.80734C10.0407 2.97027 10.1811 3.13321 10.1728 3.28757C10.1646 3.5191 10.1233 3.76779 10.0324 3.98217C9.78459 4.531 9.46242 5.02838 9.51199 5.68868C9.55329 6.21179 9.78459 6.5548 10.2307 6.73489C10.5363 6.85494 10.8585 6.975 11.1806 7.0093C12.5932 7.15508 13.0806 8.26131 13.1136 9.36754C13.1467 10.4566 13.0806 11.5457 13.2045 12.6176C13.3036 13.4666 13.6258 14.2898 13.8488 15.1217C13.9645 15.5419 14.0884 15.9706 14.171 16.3994C14.2371 16.7767 14.2536 17.1626 14.2701 17.5485C14.3032 18.3717 14.5427 19.1007 15.0714 19.7438C15.344 20.0783 15.5588 20.4727 15.7653 20.85C15.8644 21.0301 15.8892 21.2617 15.947 21.4675C15.8975 21.5018 15.8479 21.5361 15.7984 21.5704C15.6001 21.3903 15.4018 21.2016 15.1953 21.0215C15.3358 21.579 15.4762 22.1535 15.6166 22.7281C15.5588 22.7538 15.4927 22.7795 15.4349 22.8052C15.2779 22.5651 15.121 22.325 14.8979 21.982C14.8979 22.4622 14.8979 22.8481 14.8979 23.2426C14.8319 23.2512 14.774 23.2597 14.7079 23.2683C14.6171 22.831 14.5262 22.4022 14.4353 21.9648C14.4188 21.9648 14.4023 21.9563 14.394 21.9563C14.3527 22.3679 14.3114 22.7881 14.2701 23.1997C14.204 23.1997 14.138 23.2083 14.0719 23.2083C14.0058 22.8824 13.948 22.548 13.8819 22.205C13.8075 22.385 13.7332 22.5566 13.6093 22.8481C13.5515 22.6509 13.5019 22.5651 13.5019 22.4794C13.4771 21.6218 13.5267 20.7557 13.4193 19.9153C13.3449 19.3408 13.1054 18.7748 12.8576 18.2517C12.4197 17.3427 11.9654 16.4423 11.8167 15.4304C11.7341 14.8387 11.6928 14.2384 11.6185 13.6467C11.5937 13.4752 11.5111 13.3037 11.4615 13.1407C11.4285 13.1407 11.3954 13.1493 11.3624 13.1493C11.3211 13.7496 11.2798 14.3499 11.2385 14.9501C11.1559 16.2107 11.2385 17.437 11.6845 18.6547C12.1967 20.0697 12.0728 21.5532 11.8415 23.0196C11.6515 24.2716 11.4367 25.5237 11.2715 26.7842C11.1641 27.6161 11.1228 28.4564 11.0567 29.2968C11.0485 29.3912 11.0733 29.4941 11.1063 29.5884C11.5937 30.8747 11.3872 32.1353 11.0154 33.4045C10.7511 34.3135 10.4537 35.231 10.2967 36.1658C10.2141 36.6717 10.3959 37.2205 10.4702 37.7522C10.4867 37.8637 10.5528 37.958 10.5859 38.0695C10.7924 38.8327 10.6933 38.7813 10.0572 38.9528C9.64416 39.0643 9.19808 39.0643 8.76853 39.0814C8.55375 39.09 8.38854 38.9699 8.42984 38.7127C8.4794 38.4468 8.57027 38.1896 8.61983 37.9237C8.90896 36.5774 9.28069 35.2396 9.20634 33.8418C9.16504 33.0014 9.02461 32.1439 9.14852 31.3292C9.38808 29.8028 8.88418 28.3878 8.76027 26.9129C8.65288 25.6351 8.48766 24.3574 8.35549 23.0797C8.32245 22.7195 8.33071 22.7195 7.96724 22.7195C7.8929 23.5513 7.84333 24.3917 7.72768 25.2149C7.55421 26.5613 7.31465 27.8905 7.14944 29.2368C7.07509 29.8114 7.11639 30.3945 7.12465 30.9776C7.12465 31.5608 7.20726 32.1525 7.1577 32.727C7.03379 33.9619 7.02553 35.171 7.33943 36.3801C7.50465 37.0061 7.62856 37.6579 7.78551 38.2839C7.95072 38.9442 7.88464 39.0557 7.22378 39.0042C6.77771 38.9699 6.33989 38.8927 5.90208 38.8413C5.62121 38.807 5.57165 38.6269 5.62947 38.3782C5.67078 38.1981 5.70382 38.0095 5.77817 37.8465C6.18294 36.9804 6.07555 36.1057 5.82773 35.2225C5.52209 34.1248 5.1834 33.0357 4.96862 31.9209C4.86123 31.3549 4.93558 30.7204 5.04297 30.1458C5.13383 29.657 5.24948 29.2025 5.17514 28.6794C4.96036 27.2387 4.78689 25.7981 4.62993 24.3574C4.4482 22.7281 4.05169 21.1159 4.41516 19.4608C4.48124 19.1693 4.51428 18.8605 4.62167 18.5861C5.15862 17.3341 5.12557 16.0307 5.04297 14.71C5.00992 14.1869 4.96862 13.6638 4.93558 13.1322C4.88601 13.1407 4.82819 13.1407 4.77037 13.1407Z" fill="#1FA944"/>
</g>
<defs>
<clipPath id="clip0_677_1100">
<rect width="15.5796" height="38.4209" fill="white" transform="translate(0.367432 0.660889)"/>
</clipPath>
</defs>
</svg>
