 <svg  version="1.0" xmlns="http://www.w3.org/2000/svg"  width="900.000000pt" height="270.000000pt" viewBox="0 0 900.000000 270.000000"  preserveAspectRatio="xMidYMid meet">  <g transform="translate(0.000000,270.000000) scale(0.100000,-0.100000)" fill="#ffffff" stroke="none"> <path d="M4305 2269 c-41 -13 -69 -38 -94 -85 -25 -46 -26 -82 -6 -131 30 -71 78 -103 155 -103 58 0 102 21 137 66 52 69 29 193 -44 236 -36 21 -110 30 -148 17z"/> <path d="M2602 2232 c-10 -7 -12 -155 -10 -708 l3 -699 117 -3 c115 -3 118 -2 123 20 3 13 4 331 3 708 l-3 685 -110 3 c-60 1 -116 -2 -123 -6z"/> <path d="M3777 2233 c-4 -3 -7 -107 -7 -230 0 -134 -4 -223 -9 -223 -6 0 -30 14 -55 30 -153 103 -402 63 -555 -90 -57 -57 -117 -162 -143 -250 -19 -65 -16 -234 5 -295 55 -158 141 -260 277 -327 19 -10 42 -17 51 -18 8 0 21 -6 27 -12 22 -22 217 -17 277 7 62 24 157 80 180 106 24 25 52 24 66 -3 6 -13 27 -42 46 -65 35 -44 66 -55 77 -27 3 9 6 325 6 704 0 618 -2 688 -16 694 -21 8 -219 8 -227 -1z m-147 -654 c55 -34 105 -91 115 -132 4 -15 11 -30 16 -33 5 -3 9 -37 9 -75 0 -91 -32 -161 -101 -223 -190 -171 -467 16 -418 282 11 58 54 134 92 162 56 41 83 49 159 50 70 0 83 -3 128 -31z"/> <path d="M5200 2179 c-30 -5 -59 -14 -64 -19 -6 -6 -16 -10 -24 -10 -52 0 -212 -108 -291 -198 -59 -65 -135 -211 -153 -292 -24 -108 -13 -343 20 -407 6 -10 20 -40 32 -68 46 -102 147 -218 243 -279 59 -38 139 -76 159 -76 8 0 18 -4 24 -9 17 -17 177 -33 262 -26 128 10 289 69 356 132 31 28 32 42 8 74 -10 13 -38 57 -62 97 -23 39 -47 72 -52 72 -9 0 -28 -14 -85 -60 -7 -6 -15 -10 -19 -10 -3 0 -20 -6 -37 -14 -136 -60 -304 -41 -422 48 -125 94 -185 209 -185 355 0 166 82 306 225 386 36 20 94 41 139 51 71 15 83 14 154 -1 75 -16 202 -76 202 -95 0 -6 10 -10 23 -10 17 0 34 21 80 98 31 54 57 103 57 109 0 23 -163 123 -200 123 -9 0 -20 4 -25 9 -27 27 -250 39 -365 20z"/> <path d="M450 2139 c-71 -33 -166 -121 -194 -180 -102 -217 -22 -451 190 -555 58 -29 62 -29 269 -34 148 -4 217 -9 233 -18 99 -56 106 -189 15 -249 -24 -16 -63 -19 -348 -23 l-320 -5 0 -125 0 -125 350 0 c327 0 353 1 390 19 83 41 144 91 183 151 56 86 64 114 65 225 1 99 -1 109 -31 170 -48 100 -90 143 -190 197 -53 28 -107 36 -302 42 -228 7 -241 11 -274 79 -31 65 -14 130 47 176 l34 26 314 0 c173 0 324 3 337 6 22 6 23 9 20 128 l-3 121 -360 2 -360 2 -65 -30z"/> <path d="M1785 1851 c-93 -27 -165 -69 -230 -136 -58 -59 -125 -167 -125 -203 0 -10 -6 -24 -12 -30 -21 -21 -17 -244 6 -317 33 -105 124 -224 231 -301 l30 -22 -25 -46 c-14 -26 -61 -86 -105 -133 -108 -116 -162 -187 -192 -253 -14 -30 -29 -63 -35 -73 -12 -24 -29 -177 -22 -199 5 -17 38 -18 501 -18 l496 0 -7 51 c-9 66 -82 198 -165 295 -5 6 -23 36 -40 66 -26 46 -31 65 -31 120 0 66 22 128 45 128 6 0 20 -28 33 -63 34 -95 108 -217 132 -217 25 0 25 5 -2 43 -59 82 -122 221 -116 258 3 23 6 24 103 27 87 2 102 5 117 23 13 16 16 31 12 60 -5 27 -2 46 9 62 17 27 23 74 12 100 -8 19 19 57 41 57 24 0 25 19 0 58 -22 35 -24 49 -25 150 0 62 -3 117 -6 122 -9 15 14 50 41 60 37 15 29 35 -22 48 -52 14 -55 17 -106 93 -21 30 -54 69 -74 85 -54 43 -150 94 -203 105 -84 19 -201 19 -266 0z m149 -466 c42 -18 46 -42 19 -100 -16 -34 -45 -46 -58 -25 -3 6 -14 10 -24 10 -9 0 -25 6 -35 13 -17 12 -17 16 -1 65 19 58 34 64 99 37z"/> <path d="M6285 1860 c-11 -5 -30 -9 -43 -9 -13 -1 -44 -11 -70 -22 -221 -100 -328 -296 -307 -564 16 -210 128 -359 327 -437 41 -16 78 -21 164 -22 64 -1 121 4 135 10 13 7 44 20 69 30 24 11 71 38 103 62 33 24 65 41 72 38 7 -2 30 -30 50 -60 39 -59 79 -81 96 -55 10 16 13 958 3 983 -10 26 -40 18 -76 -21 -18 -20 -44 -47 -57 -60 l-24 -23 -36 27 c-20 15 -38 30 -41 34 -13 17 -123 69 -179 83 -67 17 -154 20 -186 6z m193 -269 c138 -70 195 -240 128 -381 -79 -168 -294 -212 -418 -86 -54 55 -78 121 -78 214 0 110 54 208 139 252 52 26 179 27 229 1z"/> <path d="M8279 1866 c-3 -3 -29 -10 -57 -16 -130 -24 -268 -134 -329 -260 -34 -69 -63 -188 -63 -255 0 -67 30 -186 63 -255 32 -65 114 -159 172 -196 95 -60 167 -79 295 -78 112 1 164 15 255 68 54 32 135 112 135 134 0 9 -36 53 -81 98 l-80 81 -57 -57 c-61 -60 -108 -80 -191 -80 -37 0 -41 3 -41 24 0 13 3 26 8 28 4 2 38 41 77 88 38 47 72 87 75 90 3 3 37 43 75 90 38 47 72 87 75 90 6 5 108 130 143 175 17 23 17 24 -43 83 -66 64 -156 115 -236 133 -60 13 -187 23 -195 15z m141 -267 c0 -12 -279 -383 -291 -387 -5 -2 -16 2 -24 8 -11 9 -15 36 -15 106 0 80 3 99 26 141 33 62 70 100 119 124 56 26 185 32 185 8z"/> <path d="M4242 1818 c-17 -17 -17 -969 0 -986 8 -8 50 -12 124 -12 93 0 113 3 118 16 8 20 8 958 0 978 -5 13 -25 16 -118 16 -74 0 -116 -4 -124 -12z"/> <path d="M7105 1818 c-3 -7 -4 -233 -3 -503 l3 -490 115 0 115 0 5 295 c6 316 9 336 59 393 47 53 92 66 236 69 l130 3 3 109 c2 74 -1 113 -10 123 -10 12 -36 13 -152 8 -78 -3 -153 -8 -168 -11 -34 -7 -125 -51 -157 -75 -37 -29 -53 -23 -91 34 -36 52 -75 73 -85 45z"/> </g> </svg> 