<?xml version="1.0" standalone="no"?>
<!DOCTYPE svg PUBLIC "-//W3C//DTD SVG 20010904//EN"
 "http://www.w3.org/TR/2001/REC-SVG-20010904/DTD/svg10.dtd">
<svg version="1.0" xmlns="http://www.w3.org/2000/svg"
 width="260.000000pt" height="260.000000pt" viewBox="0 0 260.000000 260.000000"
 preserveAspectRatio="xMidYMid meet">
<metadata>
Created by potrace 1.10, written by Peter Selinger 2001-2011
</metadata>
<g transform="translate(0.000000,260.000000) scale(0.100000,-0.100000)"
fill="#000000" stroke="none">
<path d="M1229 2577 c-41 -27 -59 -60 -59 -107 0 -20 -5 -41 -10 -46 -8 -8 -3
-26 15 -61 30 -62 34 -132 7 -156 -10 -9 -47 -24 -82 -33 -128 -32 -149 -67
-150 -250 0 -137 -12 -215 -45 -294 -13 -32 -27 -98 -34 -155 -11 -95 -14
-103 -60 -170 -56 -81 -70 -115 -47 -115 8 0 20 9 26 21 19 34 21 15 5 -31 -8
-23 -15 -51 -15 -62 0 -23 18 -14 30 16 7 18 9 15 9 -16 2 -67 30 -54 32 15 1
28 3 26 13 -16 13 -54 26 -53 27 2 0 35 1 35 11 11 11 -24 12 -22 19 25 4 28
8 79 8 114 1 53 7 76 39 140 56 110 71 156 81 250 14 128 27 120 34 -21 6 -99
4 -135 -9 -183 -9 -33 -23 -82 -30 -110 -8 -27 -14 -75 -14 -107 0 -63 24
-265 41 -343 22 -100 27 -235 12 -295 -18 -69 -13 -116 32 -264 38 -126 43
-190 20 -257 -15 -40 -14 -45 2 -56 18 -14 21 -14 93 -17 54 -1 53 -7 18 169
-32 159 -31 401 1 610 12 77 25 180 30 228 5 48 12 91 15 95 13 12 26 -22 26
-68 0 -25 12 -124 26 -220 38 -251 40 -490 6 -650 -36 -169 -36 -165 18 -164
72 3 75 3 93 17 16 11 17 16 2 56 -23 67 -18 131 20 257 45 148 50 195 32 264
-15 60 -10 195 12 295 17 78 41 280 41 343 0 32 -7 85 -16 117 -9 33 -23 82
-30 110 -10 37 -12 82 -7 173 7 142 20 148 35 17 10 -94 28 -149 83 -253 29
-54 35 -76 36 -131 0 -36 4 -88 8 -116 7 -47 8 -49 19 -25 10 24 11 24 11 -11
1 -55 15 -56 28 -2 9 41 11 44 12 16 2 -69 30 -82 32 -15 0 31 2 34 9 16 12
-30 30 -39 30 -16 0 11 -7 39 -15 62 -16 46 -14 65 5 31 9 -19 40 -30 40 -16
0 12 -34 72 -71 125 -35 50 -40 64 -50 155 -7 58 -21 123 -34 155 -33 78 -45
157 -45 284 0 187 -21 225 -140 257 -41 11 -83 28 -92 36 -32 29 -20 127 21
176 12 15 13 22 3 37 -7 11 -12 34 -12 52 0 69 -61 128 -130 128 -22 0 -51 -9
-71 -23z"/>
</g>
</svg>
