<svg width="16" height="40" viewBox="0 0 16 40" fill="none" xmlns="http://www.w3.org/2000/svg">
<g clip-path="url(#clip0_677_1104)">
<path d="M4.45567 13.1407C4.37306 13.6381 4.22437 14.1355 4.22437 14.6329C4.22437 15.8677 3.79482 16.9568 3.23309 17.9944C2.77049 18.852 2.44007 19.6924 2.53093 20.7043C2.5805 21.2788 2.49789 21.8705 2.47311 22.4536C2.46485 22.5394 2.43181 22.6337 2.31616 22.7366C2.24181 22.5651 2.16746 22.3936 2.08486 22.1964C2.01877 22.5394 1.96095 22.8738 1.90312 23.1997C1.83704 23.1997 1.77921 23.1997 1.71313 23.1997C1.67182 22.7881 1.62226 22.3765 1.56444 21.8448C1.44879 22.3936 1.35792 22.831 1.26705 23.2683C1.20923 23.2597 1.1514 23.2512 1.10184 23.2426C1.10184 22.8567 1.10184 22.4708 1.10184 21.9648C0.87054 22.3164 0.705327 22.5566 0.540114 22.7967C0.482289 22.7709 0.416204 22.7452 0.358379 22.7195C0.49881 22.1449 0.647502 21.5704 0.787933 20.9958C0.589677 21.1845 0.399682 21.3731 0.201426 21.5704C0.151862 21.5447 0.102298 21.5189 0.0527344 21.4846C0.0940377 21.2788 0.102298 21.0559 0.193166 20.8843C0.416204 20.4727 0.647502 20.0611 0.936625 19.7009C1.41574 19.1092 1.66356 18.4403 1.69661 17.6686C1.74617 16.5623 1.94443 15.5161 2.35746 14.4699C2.67136 13.6896 2.73745 12.7806 2.82006 11.923C2.91918 10.8597 2.84484 9.77916 2.96049 8.71581C3.05962 7.75536 3.67091 7.22369 4.58784 7.03503C4.96783 6.95785 5.33956 6.87209 5.70303 6.74346C6.56214 6.43475 6.57866 5.53433 6.34736 4.84829C6.22345 4.47955 5.96737 4.16226 5.81868 3.80209C5.75259 3.63916 5.82694 3.42477 5.85172 3.23611C5.8765 3.0303 5.91781 2.83307 5.92607 2.63583C5.96737 1.80402 6.2978 1.17801 7.04952 0.834993C7.80124 0.500551 8.61904 0.654909 9.18903 1.23804C9.61032 1.66681 9.72597 2.20706 9.72597 2.80734C9.72597 2.97027 9.8664 3.13321 9.85814 3.28757C9.84988 3.5191 9.80858 3.76779 9.71771 3.98217C9.46989 4.531 9.14773 5.02838 9.19729 5.68868C9.23859 6.21179 9.46989 6.5548 9.91597 6.73489C10.2216 6.85494 10.5438 6.975 10.8659 7.0093C12.2785 7.15508 12.7659 8.26131 12.7989 9.36754C12.832 10.4566 12.7659 11.5457 12.8898 12.6176C12.9889 13.4666 13.3111 14.2898 13.5341 15.1217C13.6498 15.5419 13.7737 15.9706 13.8563 16.3994C13.9224 16.7767 13.9389 17.1626 13.9554 17.5485C13.9885 18.3717 14.228 19.1007 14.7567 19.7438C15.0293 20.0783 15.2441 20.4727 15.4506 20.85C15.5497 21.0301 15.5745 21.2617 15.6323 21.4675C15.5828 21.5018 15.5332 21.5361 15.4837 21.5704C15.2854 21.3903 15.0871 21.2016 14.8806 21.0215C15.0211 21.579 15.1615 22.1535 15.3019 22.7281C15.2441 22.7538 15.178 22.7795 15.1202 22.8052C14.9632 22.5651 14.8063 22.325 14.5832 21.982C14.5832 22.4622 14.5832 22.8481 14.5832 23.2426C14.5172 23.2512 14.4593 23.2597 14.3932 23.2683C14.3024 22.831 14.2115 22.4022 14.1206 21.9648C14.1041 21.9648 14.0876 21.9563 14.0793 21.9563C14.038 22.3679 13.9967 22.7881 13.9554 23.1997C13.8893 23.1997 13.8233 23.2083 13.7572 23.2083C13.6911 22.8824 13.6333 22.548 13.5672 22.205C13.4928 22.385 13.4185 22.5566 13.2946 22.8481C13.2368 22.6509 13.1872 22.5651 13.1872 22.4794C13.1624 21.6218 13.212 20.7557 13.1046 19.9153C13.0302 19.3408 12.7907 18.7748 12.5429 18.2517C12.105 17.3427 11.6507 16.4423 11.502 15.4304C11.4194 14.8387 11.3781 14.2384 11.3038 13.6467C11.279 13.4752 11.1964 13.3037 11.1468 13.1407C11.1138 13.1407 11.0807 13.1493 11.0477 13.1493C11.0064 13.7496 10.9651 14.3499 10.9238 14.9501C10.8412 16.2107 10.9238 17.437 11.3698 18.6547C11.882 20.0697 11.7581 21.5532 11.5268 23.0196C11.3368 24.2716 11.122 25.5237 10.9568 26.7842C10.8494 27.6161 10.8081 28.4564 10.742 29.2968C10.7338 29.3912 10.7586 29.4941 10.7916 29.5884C11.279 30.8747 11.0725 32.1353 10.7007 33.4045C10.4364 34.3135 10.139 35.231 9.98205 36.1658C9.89945 36.6717 10.0812 37.2205 10.1555 37.7522C10.172 37.8637 10.2381 37.958 10.2712 38.0695C10.4777 38.8327 10.3786 38.7813 9.74249 38.9528C9.32946 39.0643 8.88338 39.0643 8.45383 39.0814C8.23905 39.09 8.07384 38.9699 8.11514 38.7127C8.16471 38.4468 8.25557 38.1896 8.30514 37.9237C8.59426 36.5774 8.96599 35.2396 8.89164 33.8418C8.85034 33.0014 8.70991 32.1439 8.83382 31.3292C9.07338 29.8028 8.56948 28.3878 8.44557 26.9129C8.33818 25.6351 8.17297 24.3574 8.0408 23.0797C8.00775 22.7195 8.01601 22.7195 7.65254 22.7195C7.5782 23.5513 7.52864 24.3917 7.41299 25.2149C7.23951 26.5613 6.99995 27.8905 6.83474 29.2368C6.76039 29.8114 6.8017 30.3945 6.80996 30.9776C6.80996 31.5608 6.89256 32.1525 6.843 32.727C6.71909 33.9619 6.71083 35.171 7.02473 36.3801C7.18995 37.0061 7.31386 37.6579 7.47081 38.2839C7.63602 38.9442 7.56994 39.0557 6.90909 39.0042C6.46301 38.9699 6.02519 38.8927 5.58738 38.8413C5.30652 38.807 5.25695 38.6269 5.31478 38.3782C5.35608 38.1981 5.38912 38.0095 5.46347 37.8465C5.86824 36.9804 5.76085 36.1057 5.51303 35.2225C5.20739 34.1248 4.8687 33.0357 4.65392 31.9209C4.54654 31.3549 4.62088 30.7204 4.72827 30.1458C4.81914 29.657 4.93479 29.2025 4.86044 28.6794C4.64566 27.2387 4.47219 25.7981 4.31524 24.3574C4.1335 22.7281 3.73699 21.1159 4.10046 19.4608C4.16654 19.1693 4.19959 18.8605 4.30698 18.5861C4.84392 17.3341 4.81088 16.0307 4.72827 14.71C4.69523 14.1869 4.65392 13.6638 4.62088 13.1322C4.57132 13.1407 4.51349 13.1407 4.45567 13.1407Z" fill="#E63946"/>
</g>
<defs>
<clipPath id="clip0_677_1104">
<rect width="15.5796" height="38.4209" fill="white" transform="translate(0.0527344 0.660889)"/>
</clipPath>
</defs>
</svg>
