<?xml version="1.0" standalone="no"?>
<!DOCTYPE svg PUBLIC "-//W3C//DTD SVG 20010904//EN"
 "http://www.w3.org/TR/2001/REC-SVG-20010904/DTD/svg10.dtd">
<svg version="1.0" xmlns="http://www.w3.org/2000/svg"
 width="512.000000pt" height="512.000000pt" viewBox="0 0 512.000000 512.000000"
 preserveAspectRatio="xMidYMid meet">

<g transform="translate(0.000000,512.000000) scale(0.100000,-0.100000)"
fill="#000000" stroke="none">
<path d="M2484 5110 c-18 -6 -54 -25 -80 -43 -66 -46 -96 -105 -102 -205 -3
-52 -10 -80 -20 -88 -20 -14 -9 -75 18 -99 11 -10 20 -23 20 -30 0 -7 11 -33
25 -59 31 -58 34 -152 7 -206 -23 -46 -102 -86 -212 -106 -126 -24 -181 -58
-222 -139 -38 -72 -41 -98 -48 -375 -7 -307 -21 -393 -86 -541 -42 -95 -49
-129 -68 -314 -9 -82 -20 -165 -25 -183 -6 -18 -41 -77 -79 -130 -116 -162
-150 -236 -115 -249 12 -5 28 6 55 37 21 23 38 40 38 36 0 -3 -14 -53 -31
-111 -17 -58 -28 -112 -25 -120 10 -27 38 -3 65 56 l26 58 0 -91 c0 -61 4 -92
12 -95 19 -7 33 31 40 112 3 41 9 75 13 75 4 0 10 -38 12 -85 2 -47 9 -90 15
-96 18 -18 33 15 40 86 l6 66 16 -46 c9 -26 21 -47 26 -46 11 1 12 15 23 282
l8 176 77 151 c103 202 136 303 148 451 9 119 17 164 40 216 12 29 13 26 21
-55 5 -47 10 -175 11 -285 l2 -200 -37 -111 c-51 -157 -71 -262 -71 -379 1
-131 49 -507 93 -725 10 -52 24 -167 29 -255 10 -149 9 -164 -9 -225 -48 -152
-35 -267 61 -572 52 -164 62 -208 66 -290 5 -87 3 -103 -20 -160 -33 -84 -42
-134 -28 -152 10 -12 115 -35 161 -35 8 0 37 -2 65 -5 82 -8 92 19 51 141 -13
38 -27 94 -31 124 -3 30 -18 106 -32 169 -24 107 -25 124 -17 255 11 178 11
292 0 430 -7 95 -6 126 13 221 41 212 101 684 101 790 0 53 0 54 30 54 30 0
30 0 30 -57 1 -111 63 -590 101 -783 19 -91 20 -121 13 -220 -10 -142 -10
-253 0 -440 7 -119 6 -156 -7 -205 -9 -33 -25 -112 -36 -175 -11 -63 -29 -142
-40 -174 -38 -109 -25 -138 59 -129 25 2 54 4 65 4 35 -1 140 20 153 31 19 16
14 52 -19 140 -29 75 -31 88 -27 172 4 74 16 127 66 287 99 319 111 428 63
579 -20 61 -20 75 -10 225 6 88 19 203 29 255 45 221 92 594 93 725 0 117 -20
222 -71 379 -36 108 -37 115 -37 266 0 85 4 213 9 285 7 111 10 127 22 111 19
-27 35 -108 44 -232 10 -140 47 -252 139 -429 38 -71 73 -146 79 -165 6 -19
14 -129 17 -245 4 -115 10 -214 15 -219 10 -10 39 48 41 81 1 10 6 -13 10 -51
17 -129 50 -124 57 9 2 47 8 85 12 85 4 0 10 -34 13 -75 7 -81 21 -119 40
-112 8 3 12 34 12 95 l0 91 26 -58 c27 -59 55 -83 65 -56 3 8 -8 62 -25 120
-17 58 -31 108 -31 111 0 4 17 -13 38 -36 27 -31 43 -42 55 -37 35 13 1 87
-115 249 -38 53 -73 112 -79 130 -5 18 -16 101 -25 183 -19 185 -26 219 -68
314 -65 148 -79 234 -86 541 -8 312 -14 344 -86 429 -37 44 -85 66 -184 85
-110 20 -189 60 -212 106 -25 49 -24 152 1 194 10 17 22 42 26 56 4 14 18 38
31 53 27 32 32 85 9 93 -11 5 -15 22 -15 63 0 121 -46 203 -142 252 -48 24
-146 34 -194 19z"/>
</g>
</svg>
