<svg width="17" height="40" viewBox="0 0 17 40" fill="none" xmlns="http://www.w3.org/2000/svg">
<g clip-path="url(#clip0_677_1123)">
<path d="M5.08506 13.3671C5.00246 13.8644 4.85376 14.3618 4.85376 14.8592C4.85376 16.094 4.42421 17.1831 3.86248 18.2207C3.39989 19.0783 3.06946 19.9187 3.16033 20.9306C3.20989 21.5051 3.12729 22.0968 3.1025 22.68C3.09424 22.7657 3.0612 22.8601 2.94555 22.963C2.8712 22.7914 2.79686 22.6199 2.71425 22.4227C2.64817 22.7657 2.59034 23.1002 2.53252 23.426C2.46643 23.426 2.40861 23.426 2.34252 23.426C2.30122 23.0144 2.25165 22.6028 2.19383 22.0711C2.07818 22.6199 1.98731 23.0573 1.89645 23.4946C1.83862 23.4861 1.7808 23.4775 1.73123 23.4689C1.73123 23.083 1.73123 22.6971 1.73123 22.1912C1.49993 22.5428 1.33472 22.7829 1.16951 23.023C1.11168 22.9973 1.0456 22.9715 0.987773 22.9458C1.1282 22.3713 1.2769 21.7967 1.41733 21.2221C1.21907 21.4108 1.02908 21.5995 0.830821 21.7967C0.781257 21.771 0.731693 21.7452 0.682129 21.7109C0.723432 21.5051 0.731693 21.2822 0.82256 21.1107C1.0456 20.699 1.2769 20.2874 1.56602 19.9273C2.04514 19.3355 2.29296 18.6667 2.326 17.8949C2.37556 16.7886 2.57382 15.7424 2.98685 14.6962C3.30076 13.9159 3.36684 13.0069 3.44945 12.1493C3.54858 11.086 3.47423 10.0055 3.58988 8.94213C3.68901 7.98168 4.3003 7.45001 5.21723 7.26135C5.59722 7.18417 5.96895 7.09841 6.33242 6.96978C7.19153 6.66107 7.20805 5.76065 6.97675 5.07461C6.85284 4.70587 6.59676 4.38858 6.44807 4.02841C6.38199 3.86548 6.45633 3.65109 6.48111 3.46243C6.5059 3.25662 6.5472 3.05939 6.55546 2.86215C6.59676 2.03033 6.92719 1.40433 7.67891 1.06131C8.43063 0.726869 9.24844 0.881227 9.81842 1.46436C10.2397 1.89313 10.3554 2.43338 10.3554 3.03366C10.3554 3.19659 10.4958 3.35953 10.4875 3.51388C10.4793 3.74542 10.438 3.99411 10.3471 4.20849C10.0993 4.75732 9.77712 5.2547 9.82668 5.915C9.86799 6.4381 10.0993 6.78112 10.5454 6.96121C10.851 7.08126 11.1732 7.20132 11.4953 7.23562C12.9079 7.3814 13.3953 8.48763 13.4283 9.59386C13.4614 10.6829 13.3953 11.772 13.5192 12.8439C13.6183 13.6929 13.9405 14.5162 14.1635 15.348C14.2792 15.7682 14.4031 16.1969 14.4857 16.6257C14.5518 17.003 14.5683 17.3889 14.5848 17.7748C14.6179 18.5981 14.8574 19.327 15.3861 19.9701C15.6587 20.3046 15.8735 20.699 16.08 21.0764C16.1791 21.2564 16.2039 21.488 16.2617 21.6938C16.2122 21.7281 16.1626 21.7624 16.113 21.7967C15.9148 21.6166 15.7165 21.428 15.51 21.2479C15.6505 21.8053 15.7909 22.3798 15.9313 22.9544C15.8735 22.9801 15.8074 23.0058 15.7496 23.0316C15.5926 22.7914 15.4357 22.5513 15.2126 22.2083C15.2126 22.6885 15.2126 23.0744 15.2126 23.4689C15.1466 23.4775 15.0887 23.4861 15.0226 23.4946C14.9318 23.0573 14.8409 22.6285 14.75 22.1912C14.7335 22.1912 14.717 22.1826 14.7087 22.1826C14.6674 22.5942 14.6261 23.0144 14.5848 23.426C14.5187 23.426 14.4527 23.4346 14.3866 23.4346C14.3205 23.1087 14.2627 22.7743 14.1966 22.4313C14.1222 22.6114 14.0479 22.7829 13.924 23.0744C13.8661 22.8772 13.8166 22.7914 13.8166 22.7057C13.7918 21.8481 13.8414 20.982 13.734 20.1416C13.6596 19.5671 13.4201 19.0011 13.1723 18.478C12.7344 17.569 12.2801 16.6686 12.1314 15.6567C12.0488 15.065 12.0075 14.4647 11.9332 13.873C11.9084 13.7015 11.8258 13.53 11.7762 13.3671C11.7432 13.3671 11.7101 13.3756 11.6771 13.3756C11.6358 13.9759 11.5945 14.5762 11.5532 15.1765C11.4706 16.4371 11.5532 17.6633 11.9992 18.8811C12.5114 20.296 12.3875 21.7795 12.1562 23.2459C11.9662 24.498 11.7514 25.75 11.5862 27.0106C11.4788 27.8424 11.4375 28.6828 11.3714 29.5232C11.3632 29.6175 11.3879 29.7204 11.421 29.8147C11.9084 31.101 11.7019 32.3616 11.3301 33.6308C11.0658 34.5398 10.7684 35.4574 10.6114 36.3921C10.5288 36.898 10.7106 37.4469 10.7849 37.9785C10.8014 38.09 10.8675 38.1843 10.9006 38.2958C11.1071 39.059 11.008 39.0076 10.3719 39.1791C9.95885 39.2906 9.51278 39.2906 9.08322 39.3077C8.86845 39.3163 8.70323 39.1962 8.74454 38.939C8.7941 38.6731 8.88497 38.4159 8.93453 38.15C9.22365 36.8037 9.59538 35.4659 9.52104 34.0681C9.47974 33.2277 9.3393 32.3702 9.46321 31.5555C9.70277 30.0291 9.19887 28.6142 9.07496 27.1392C8.96757 25.8615 8.80236 24.5837 8.67019 23.306C8.63715 22.9458 8.64541 22.9458 8.28194 22.9458C8.20759 23.7776 8.15803 24.618 8.04238 25.4413C7.86891 26.7876 7.62935 28.1168 7.46413 29.4631C7.38979 30.0377 7.43109 30.6208 7.43935 31.2039C7.43935 31.7871 7.52196 32.3788 7.47239 32.9533C7.34848 34.1882 7.34022 35.3973 7.65413 36.6065C7.81934 37.2325 7.94325 37.8842 8.1002 38.5102C8.26542 39.1705 8.19933 39.282 7.53848 39.2305C7.0924 39.1962 6.65459 39.1191 6.21677 39.0676C5.93591 39.0333 5.88635 38.8532 5.94417 38.6045C5.98548 38.4244 6.01852 38.2358 6.09286 38.0729C6.49764 37.2067 6.39025 36.332 6.14243 35.4488C5.83678 34.3511 5.4981 33.262 5.28332 32.1472C5.17593 31.5813 5.25028 30.9467 5.35766 30.3721C5.44853 29.8833 5.56418 29.4288 5.48984 28.9057C5.27506 27.4651 5.10158 26.0244 4.94463 24.5837C4.7629 22.9544 4.36638 21.3422 4.72985 19.6871C4.79594 19.3956 4.82898 19.0869 4.93637 18.8124C5.47331 17.5604 5.44027 16.257 5.35766 14.9364C5.32462 14.4133 5.28332 13.8902 5.25028 13.3585C5.20071 13.367 5.14289 13.3671 5.08506 13.3671Z" fill="#F4A261"/>
</g>
<defs>
<clipPath id="clip0_677_1123">
<rect width="15.5796" height="38.4209" fill="white" transform="translate(0.682129 0.887207)"/>
</clipPath>
</defs>
</svg>
